<svg t="1719560700727" class="icon" viewBox="0 0 1024 1024" version="1.1" xmlns="http://www.w3.org/2000/svg" p-id="4295" width="200" height="200"><path d="M0 0m125.582536 0l772.834928 0q125.582536 0 125.582536 125.582536l0 772.834928q0 125.582536-125.582536 125.582536l-772.834928 0q-125.582536 0-125.582536-125.582536l0-772.834928q0-125.582536 125.582536-125.582536Z" fill="#3A92FF" p-id="4296"></path><path d="M735.536914 150.447878v13.311749h-32.149129v-13.311749h-32.149129v13.311749h-32.274712v-13.311749h-33.404955v13.311749h-32.149129v-13.311749H541.260731v13.311749h-32.274712v-13.311749h-32.149129v13.311749h-32.149129v-13.311749h-32.14913v13.311749h-32.274711v-13.311749h-33.404955v13.311749h-32.149129v-13.311749h-16.200148v584.963454h16.200148V703.262203h32.149129v32.149129h33.404955V703.262203h32.274711v32.149129h32.14913V703.262203h32.149129v32.149129h32.149129V703.262203h32.274712v32.149129h32.149129V703.262203h32.149129v32.149129h33.404955V703.262203h32.274712v32.149129h32.149129V703.262203h32.149129v32.149129h15.069905V150.447878h-15.069905z" fill="#E3E1E1" p-id="4297"></path><path d="M638.210449 264.476821v13.311749h-32.149129v-13.311749H573.91219v13.311749h-32.274711v-13.311749h-33.404955v13.311749h-32.149129v-13.311749h-32.14913v13.311749h-32.274711v-13.311749h-32.14913v13.311749h-32.149129v-13.311749H315.212166v13.311749h-32.274712v-13.311749h-33.404955v13.311749h-32.149129v-13.311749h-16.200147v584.963454h16.200147v-32.14913h32.149129v32.14913h33.404955v-32.14913h32.274712v32.14913h32.149129v-32.14913h32.149129v32.14913h32.14913v-32.14913h32.274711v32.14913h32.14913v-32.14913h32.149129v32.14913h33.404955v-32.14913h32.274711v32.14913h32.14913v-32.14913h32.149129v32.14913h15.069904V264.476821h-15.069904z" fill="#FFFFFF" p-id="4298"></path><path d="M669.982831 720.718175m-152.833947 0a152.833947 152.833947 0 1 0 305.667893 0 152.833947 152.833947 0 1 0-305.667893 0Z" fill="#FFFFFF" p-id="4299"></path><path d="M669.982831 720.718175m-131.861663 0a131.861663 131.861663 0 1 0 263.723326 0 131.861663 131.861663 0 1 0-263.723326 0Z" fill="#FF0000" p-id="4300"></path><path d="M669.982831 720.718175m-121.940643 0a121.940643 121.940643 0 1 0 243.881285 0 121.940643 121.940643 0 1 0-243.881285 0Z" fill="#FFFFFF" p-id="4301"></path><path d="M665.838607 730.136865h45.460878v12.558254h-58.019132V660.56414h12.558254v69.572725z" fill="#FF0000" p-id="4302"></path><path d="M249.281334 376.496443H378.003434v17.832721H249.281334zM476.33456 376.496443h128.722099v17.832721H476.33456zM249.281334 425.096885h355.775325v17.83272H249.281334zM249.281334 473.822909h355.775325v17.83272H249.281334zM249.281334 522.423351h355.775325v17.83272H249.281334zM249.281334 571.149375h323.877361v17.83272H249.281334zM249.281334 619.749816h274.774589v17.83272H249.281334zM249.281334 668.47584h244.885946v17.83272h-244.885946zM249.281334 717.076282h64.423841v17.83272h-64.423841zM395.082659 717.076282h64.423841v17.83272h-64.423841z" fill="#E3E1E1" p-id="4303"></path></svg>