<?xml version="1.0" standalone="no"?><!DOCTYPE svg PUBLIC "-//W3C//DTD SVG 1.1//EN" "http://www.w3.org/Graphics/SVG/1.1/DTD/svg11.dtd"><svg t="1718870451451" class="icon" viewBox="0 0 1024 1024" version="1.1" xmlns="http://www.w3.org/2000/svg" p-id="4234" xmlns:xlink="http://www.w3.org/1999/xlink" width="200" height="200"><path d="M280.980456 800.205461 46.059409 800.205461 46.059409 233.728921l232.71742 0 0 74.923305L130.772596 308.652226l0 165.416496 127.412968 0 0 73.478304L130.772596 547.547026l0 177.699005 150.20786 0L280.980456 800.205461z" p-id="4235"></path><path d="M628.828336 800.205461l-88.289565 0-93.383193-263.134693 0-51.044662 83.268186 0 0-179.541382-106.785578 0 0 493.720737L338.888873 800.205461 338.888873 233.728921l224.769915 0c34.029775 0 51.044662 17.376138 51.044662 52.128413l0 205.912651c0 23.914768-8.092006 39.340154-24.239893 46.348409-8.670006 3.612503-27.02152 5.418754-55.018415 5.418754L628.828336 800.205461z" p-id="4236"></path><path d="M954.242574 542.128272c0 35.221901-17.267763 52.850914-51.767163 52.850914l-137.166725 0 0 205.226275L680.595498 800.205461 680.595498 233.728921l221.879913 0c34.4994 0 51.767163 17.376138 51.767163 52.128413L954.242574 542.128272zM868.806886 522.223382 868.806886 306.484724l-103.498201 0 0 215.738658L868.806886 522.223382z" p-id="4237"></path></svg>